<svg width="64" height="64" viewBox="0 0 64 64" xmlns="http://www.w3.org/2000/svg"><rect width="64" height="64" rx="14" fill="#5d7a3f"/><g stroke="#ffffff" stroke-width="2.4" stroke-linecap="round" stroke-linejoin="round" fill="none"><path d="M32 14 C28 24 27.5 34 32 45 C36.5 34 36 24 32 14 Z"/><path d="M32 45 C25 40 20 32 19 22 C26 26 31 34 32 45 Z"/><path d="M32 45 C39 40 44 32 45 22 C38 26 33 34 32 45 Z"/><path d="M32 47 C22 46 12.5 42 7 34 C17 35 27 39 32 47 Z"/><path d="M32 47 C42 46 51.5 42 57 34 C47 35 37 39 32 47 Z"/></g></svg>
